<mxfile host="app.diagrams.net" modified="2024-04-18T09:01:23.461Z" agent="Mozilla/5.0 (Windows NT 10.0; Win64; x64) AppleWebKit/537.36 (KHTML, like Gecko) Chrome/123.0.0.0 Safari/537.36" etag="DabXcrhGh6H6NN30TWyT" version="24.2.5" type="device">
  <diagram name="Page-1" id="0wLIXpJAXUwCmXrU7IWL">
    <mxGraphModel dx="1050" dy="522" grid="1" gridSize="10" guides="1" tooltips="1" connect="1" arrows="1" fold="1" page="1" pageScale="1" pageWidth="827" pageHeight="1169" math="0" shadow="0">
      <root>
        <mxCell id="0" />
        <mxCell id="1" parent="0" />
        <mxCell id="uXlZjYWca6yOcwcuX-A0-21" style="edgeStyle=orthogonalEdgeStyle;rounded=0;orthogonalLoop=1;jettySize=auto;html=1;entryX=0.5;entryY=1;entryDx=0;entryDy=0;" edge="1" parent="1" source="uXlZjYWca6yOcwcuX-A0-2" target="uXlZjYWca6yOcwcuX-A0-3">
          <mxGeometry relative="1" as="geometry" />
        </mxCell>
        <mxCell id="uXlZjYWca6yOcwcuX-A0-2" value="~" style="ellipse;whiteSpace=wrap;html=1;aspect=fixed;fontSize=50;" vertex="1" parent="1">
          <mxGeometry x="320" y="200" width="60" height="60" as="geometry" />
        </mxCell>
        <mxCell id="uXlZjYWca6yOcwcuX-A0-3" value="" style="shape=sumEllipse;perimeter=ellipsePerimeter;whiteSpace=wrap;html=1;backgroundOutline=1;" vertex="1" parent="1">
          <mxGeometry x="330" y="80" width="40" height="40" as="geometry" />
        </mxCell>
        <mxCell id="uXlZjYWca6yOcwcuX-A0-7" value="channel" style="shape=cylinder3;whiteSpace=wrap;html=1;boundedLbl=1;backgroundOutline=1;size=15;" vertex="1" parent="1">
          <mxGeometry x="720" y="210" width="60" height="210" as="geometry" />
        </mxCell>
        <mxCell id="uXlZjYWca6yOcwcuX-A0-8" style="edgeStyle=orthogonalEdgeStyle;rounded=0;orthogonalLoop=1;jettySize=auto;html=1;exitX=1;exitY=0.5;exitDx=0;exitDy=0;entryX=0.5;entryY=0;entryDx=0;entryDy=0;entryPerimeter=0;" edge="1" parent="1" source="uXlZjYWca6yOcwcuX-A0-3" target="uXlZjYWca6yOcwcuX-A0-7">
          <mxGeometry relative="1" as="geometry">
            <mxPoint x="440" y="100" as="sourcePoint" />
          </mxGeometry>
        </mxCell>
        <mxCell id="uXlZjYWca6yOcwcuX-A0-13" style="edgeStyle=orthogonalEdgeStyle;rounded=0;orthogonalLoop=1;jettySize=auto;html=1;entryX=0;entryY=0.5;entryDx=0;entryDy=0;" edge="1" parent="1" source="uXlZjYWca6yOcwcuX-A0-14" target="uXlZjYWca6yOcwcuX-A0-3">
          <mxGeometry relative="1" as="geometry" />
        </mxCell>
        <mxCell id="uXlZjYWca6yOcwcuX-A0-14" value="m(t)" style="verticalLabelPosition=bottom;verticalAlign=top;html=1;shape=mxgraph.basic.polygon;polyCoords=[[0.25,0],[0.75,0],[1,0.25],[1,0.75],[0.75,1],[0.25,1],[0,0.75],[0,0.25]];polyline=0;" vertex="1" parent="1">
          <mxGeometry x="50" y="70" width="60" height="60" as="geometry" />
        </mxCell>
        <mxCell id="uXlZjYWca6yOcwcuX-A0-17" value="m`(t)" style="verticalLabelPosition=bottom;verticalAlign=top;html=1;shape=mxgraph.basic.polygon;polyCoords=[[0.25,0],[0.75,0],[1,0.25],[1,0.75],[0.75,1],[0.25,1],[0,0.75],[0,0.25]];polyline=0;" vertex="1" parent="1">
          <mxGeometry x="40" y="585" width="60" height="60" as="geometry" />
        </mxCell>
        <mxCell id="uXlZjYWca6yOcwcuX-A0-20" value="" style="edgeStyle=segmentEdgeStyle;endArrow=classic;html=1;curved=0;rounded=0;endSize=8;startSize=8;entryX=1;entryY=0.5;entryDx=0;entryDy=0;" edge="1" parent="1" source="uXlZjYWca6yOcwcuX-A0-7">
          <mxGeometry width="50" height="50" relative="1" as="geometry">
            <mxPoint x="740" y="500" as="sourcePoint" />
            <mxPoint x="650" y="615" as="targetPoint" />
            <Array as="points">
              <mxPoint x="750" y="615" />
            </Array>
          </mxGeometry>
        </mxCell>
        <mxCell id="uXlZjYWca6yOcwcuX-A0-22" style="edgeStyle=orthogonalEdgeStyle;rounded=0;orthogonalLoop=1;jettySize=auto;html=1;entryX=0.5;entryY=1;entryDx=0;entryDy=0;" edge="1" parent="1" source="uXlZjYWca6yOcwcuX-A0-23" target="uXlZjYWca6yOcwcuX-A0-24">
          <mxGeometry relative="1" as="geometry" />
        </mxCell>
        <mxCell id="uXlZjYWca6yOcwcuX-A0-23" value="~" style="ellipse;whiteSpace=wrap;html=1;aspect=fixed;fontSize=50;" vertex="1" parent="1">
          <mxGeometry x="600" y="760" width="60" height="60" as="geometry" />
        </mxCell>
        <mxCell id="uXlZjYWca6yOcwcuX-A0-27" style="edgeStyle=orthogonalEdgeStyle;rounded=0;orthogonalLoop=1;jettySize=auto;html=1;entryX=1;entryY=0.5;entryDx=0;entryDy=0;" edge="1" parent="1" source="uXlZjYWca6yOcwcuX-A0-24" target="uXlZjYWca6yOcwcuX-A0-26">
          <mxGeometry relative="1" as="geometry" />
        </mxCell>
        <mxCell id="uXlZjYWca6yOcwcuX-A0-24" value="" style="shape=sumEllipse;perimeter=ellipsePerimeter;whiteSpace=wrap;html=1;backgroundOutline=1;" vertex="1" parent="1">
          <mxGeometry x="610" y="595" width="40" height="40" as="geometry" />
        </mxCell>
        <mxCell id="uXlZjYWca6yOcwcuX-A0-28" style="edgeStyle=orthogonalEdgeStyle;rounded=0;orthogonalLoop=1;jettySize=auto;html=1;" edge="1" parent="1" source="uXlZjYWca6yOcwcuX-A0-26" target="uXlZjYWca6yOcwcuX-A0-17">
          <mxGeometry relative="1" as="geometry">
            <mxPoint x="230" y="615" as="targetPoint" />
          </mxGeometry>
        </mxCell>
        <mxCell id="uXlZjYWca6yOcwcuX-A0-26" value="LPF" style="rounded=0;whiteSpace=wrap;html=1;" vertex="1" parent="1">
          <mxGeometry x="340" y="585" width="120" height="60" as="geometry" />
        </mxCell>
      </root>
    </mxGraphModel>
  </diagram>
</mxfile>
